<svg width="120" height="120" viewBox="0 0 120 120" fill="none" xmlns="http://www.w3.org/2000/svg">
    <g clip-path="url(#clip0_7_158)">
        <g filter="url(#filter0_i_7_158)">
            <rect width="120" height="120" rx="16" fill="url(#paint0_radial_7_158)" />
        </g>
        <rect x="2" y="2" width="116" height="116" rx="14" stroke="#444444" stroke-width="4" />
        <rect x="30" y="30" width="60" height="60" stroke="white" stroke-width="4" />
        <rect x="96" y="56" width="16" height="8" fill="white" />
        <rect x="56" y="8" width="8" height="16" fill="white" />
        <rect x="56" y="96" width="8" height="16" fill="white" />
        <rect x="8" y="56" width="16" height="8" fill="white" />
        <path fill-rule="evenodd" clip-rule="evenodd"
            d="M38.4 80H48L50.6667 72H69.3334L72 80H81.6758L68 40H64.0001H56.0001H52L38.4 80ZM58.6667 48L53.3334 64H66.6667L61.3334 48H58.6667Z"
            fill="url(#paint1_radial_7_158)" />
    </g>
    <defs>
        <filter id="filter0_i_7_158" x="0" y="0" width="120" height="120" filterUnits="userSpaceOnUse"
            color-interpolation-filters="sRGB">
            <feFlood flood-opacity="0" result="BackgroundImageFix" />
            <feBlend mode="normal" in="SourceGraphic" in2="BackgroundImageFix" result="shape" />
            <feColorMatrix in="SourceAlpha" type="matrix" values="0 0 0 0 0 0 0 0 0 0 0 0 0 0 0 0 0 0 127 0"
                result="hardAlpha" />
            <feOffset />
            <feGaussianBlur stdDeviation="3.5" />
            <feComposite in2="hardAlpha" operator="arithmetic" k2="-1" k3="1" />
            <feColorMatrix type="matrix" values="0 0 0 0 0 0 0 0 0 0 0 0 0 0 0 0 0 0 1 0" />
            <feBlend mode="normal" in2="shape" result="effect1_innerShadow_7_158" />
        </filter>
        <radialGradient id="paint0_radial_7_158" cx="0" cy="0" r="1" gradientUnits="userSpaceOnUse"
            gradientTransform="translate(60 5.5) rotate(90) scale(124.5)">
            <stop stop-color="#404040" />
            <stop offset="1" stop-color="#2C2C2C" />
        </radialGradient>
        <radialGradient id="paint1_radial_7_158" cx="0" cy="0" r="1" gradientUnits="userSpaceOnUse"
            gradientTransform="translate(60.0379 40) rotate(90) scale(44.5 48.1443)">
            <stop stop-color="#00D1FF" />
            <stop offset="1" stop-color="#0396FF" />
        </radialGradient>
        <clipPath id="clip0_7_158">
            <rect width="120" height="120" fill="white" />
        </clipPath>
    </defs>
</svg>